<svg version="1.1" xmlns="http://www.w3.org/2000/svg" xmlns:xlink="http://www.w3.org/1999/xlink" viewBox="60 185 440 100" style="width: 100%; opacity: 1; filter: drop-shadow(rgba(0, 0, 0, 0.6) 3px 2px 4px);">
    <g fill="#c1c6c8" fill-rule="nonzero" stroke="none" stroke-width="1" stroke-linecap="butt" stroke-linejoin="miter"
        stroke-miterlimit="10" stroke-dasharray="" stroke-dashoffset="0" font-family="none" font-weight="none"
        font-size="none" text-anchor="none" style="mix-blend-mode: normal; fill: rgb(255, 255, 255); opacity: 1;">
        <g style="fill: rgb(255, 255, 255); opacity: 1;">
            <g style="fill: rgb(255, 255, 255); opacity: 1;">
                <path d="M74.36669,212.39385h7.44532v28.22016c0,0.36026 -0.03002,1.03074 -0.09006,2.01144c-0.06004,0.9807 -0.24017,2.09149 -0.54039,3.33238c-0.30021,1.24089 -0.79056,2.54182 -1.47105,3.90279c-0.68049,1.36097 -1.64117,2.60186 -2.88206,3.72266c-1.24089,1.1208 -2.82202,2.04146 -4.74339,2.76197c-1.92137,0.72051 -4.28306,1.08077 -7.08506,1.08077v-7.32523c2.36169,0 4.17298,-0.44031 5.43388,-1.32094c1.2609,-0.88063 2.17155,-1.89135 2.73195,-3.03217c0.5604,-1.14081 0.88063,-2.23159 0.96069,-3.27234c0.08006,-1.04074 0.1401,-1.74124 0.18013,-2.1015z" style="fill: rgb(255, 255, 255);"></path>
                <path d="M127.98499,212.39385v28.34024c0,0.40029 -0.03002,1.09078 -0.09006,2.07148c-0.06004,0.9807 -0.25018,2.09149 -0.57041,3.33238c-0.32023,1.24089 -0.83059,2.53181 -1.53109,3.87277c-0.7005,1.34096 -1.70122,2.56183 -3.00214,3.66262c-1.30093,1.10079 -2.9421,2.00143 -4.92352,2.70193c-1.98142,0.7005 -4.43317,1.05075 -7.35525,1.05075c-2.76197,0 -5.10365,-0.35025 -7.02502,-1.05075c-1.92137,-0.7005 -3.5025,-1.60114 -4.74339,-2.70193c-1.24089,-1.10079 -2.19157,-2.32166 -2.85204,-3.66262c-0.66047,-1.34096 -1.14081,-2.63188 -1.44103,-3.87277c-0.30021,-1.24089 -0.48034,-2.35168 -0.54039,-3.33238c-0.06004,-0.9807 -0.09006,-1.67119 -0.09006,-2.07148v-28.34024h7.50536v28.34024c0,0.44031 0.05004,1.20086 0.15011,2.28163c0.10007,1.08077 0.43031,2.19157 0.99071,3.33238c0.5604,1.14081 1.47105,2.15154 2.73195,3.03217c1.2609,0.88063 3.03217,1.32094 5.3138,1.32094c2.48177,0 4.39314,-0.44031 5.7341,-1.32094c1.34096,-0.88063 2.32166,-1.89135 2.9421,-3.03217c0.62044,-1.14081 0.9807,-2.25161 1.08077,-3.33238c0.10007,-1.08077 0.15011,-1.84132 0.15011,-2.28163v-28.34024z" style="fill: rgb(255, 255, 255);"></path>
                <path d="M140.23374,212.39385h7.44532v39.20801l-7.44532,5.82416z" style="fill: rgb(255, 255, 255);"></path>
                <path d="M194.33238,250.64117c-2.12152,2.08149 -4.54325,3.71265 -7.26519,4.8935c-2.72194,1.18084 -5.56397,1.77127 -8.52609,1.77127c-2.92209,0 -5.7341,-0.59042 -8.43603,-1.77127c-2.70193,-1.18084 -5.09364,-2.79199 -7.17513,-4.83345c-2.08149,-2.04146 -3.74267,-4.42316 -4.98356,-7.1451c-1.24089,-2.72194 -1.86133,-5.62402 -1.86133,-8.70622c0,-2.92209 0.59042,-5.7341 1.77127,-8.43603c1.18084,-2.70193 2.79199,-5.09364 4.83345,-7.17513c2.04146,-2.08149 4.42316,-3.74267 7.1451,-4.98356c2.72194,-1.24089 5.62402,-1.86133 8.70622,-1.86133c2.96212,0 5.80415,0.59042 8.52609,1.77127c2.72194,1.18084 5.14367,2.81201 7.26519,4.8935l-4.98356,4.98356c-1.64117,-1.24089 -3.33238,-2.25161 -5.07362,-3.03217c-1.74124,-0.78056 -3.65261,-1.17084 -5.7341,-1.17084c-2.08149,0 -4.03288,0.39028 -5.85418,1.17084c-1.8213,0.78056 -3.40243,1.85132 -4.74339,3.21229c-1.34096,1.36097 -2.40172,2.95211 -3.18227,4.77341c-0.78056,1.8213 -1.17084,3.77269 -1.17084,5.85418c0,2.08149 0.39028,4.03288 1.17084,5.85418c0.78056,1.8213 1.84132,3.40243 3.18227,4.74339c1.34096,1.34096 2.92209,2.40172 4.74339,3.18227c1.8213,0.78056 3.77269,1.17084 5.85418,1.17084c2.08149,0 3.96283,-0.38027 5.64403,-1.14081c1.6812,-0.76054 3.14224,-1.76126 4.38313,-3.00214z" style="fill: rgb(255, 255, 255);"></path>
                <path d="M224.95425,236.59114v20.83488h-7.50536v-20.83488l-18.37312,-24.19728h9.18656l13.38956,16.69192l12.48892,-16.69192h10.02716z" style="fill: rgb(255, 255, 255);"></path>
                <path d="M298.62688,250.10079v7.50536h-30.14153v0v-45.15225h7.50536v37.64689z" style="fill: rgb(255, 255, 255);"></path>
                <path d="M325.70622,212.39385c3.00214,0 5.85418,0.58041 8.55611,1.74124c2.70193,1.16083 5.09364,2.75197 7.17513,4.77341c2.08149,2.02144 3.73267,4.40315 4.95354,7.1451c1.22087,2.74196 1.83131,5.69407 1.83131,8.85633c0,3.00214 -0.58041,5.85418 -1.74124,8.55611c-1.16083,2.70193 -2.75197,5.09364 -4.77341,7.17513c-2.02144,2.08149 -4.40315,3.73267 -7.1451,4.95354c-2.74196,1.22087 -5.69407,1.83131 -8.85633,1.83131c-3.00214,0 -5.86419,-0.58041 -8.58613,-1.74124c-2.72194,-1.16083 -5.11365,-2.76197 -7.17513,-4.80343c-2.06147,-2.04146 -3.70264,-4.43317 -4.92352,-7.17513c-1.22087,-2.74196 -1.83131,-5.67405 -1.83131,-8.79628c0,-3.04217 0.58041,-5.91422 1.74124,-8.61615c1.16083,-2.70193 2.75197,-5.07362 4.77341,-7.11508c2.02144,-2.04146 4.40315,-3.66262 7.1451,-4.86347c2.74196,-1.20086 5.69407,-1.84132 8.85633,-1.92137zM325.70622,249.92066c1.9614,0 3.85275,-0.39028 5.67405,-1.17084c1.8213,-0.78056 3.42244,-1.85132 4.80343,-3.21229c1.38099,-1.36097 2.48177,-2.95211 3.30236,-4.77341c0.82059,-1.8213 1.23088,-3.77269 1.23088,-5.85418c0,-2.00143 -0.39028,-3.91279 -1.17084,-5.7341c-0.78056,-1.8213 -1.85132,-3.42244 -3.21229,-4.80343c-1.36097,-1.38099 -2.95211,-2.48177 -4.77341,-3.30236c-1.8213,-0.82059 -3.77269,-1.23088 -5.85418,-1.23088c-2.00143,0 -3.91279,0.39028 -5.7341,1.17084c-1.8213,0.78056 -3.42244,1.85132 -4.80343,3.21229c-1.38099,1.36097 -2.48177,2.96212 -3.30236,4.80343c-0.82059,1.84132 -1.23088,3.80272 -1.23088,5.8842c0,2.04146 0.39028,3.95282 1.17084,5.7341c0.78056,1.78127 1.85132,3.35239 3.21229,4.71337c1.36097,1.36097 2.95211,2.44174 4.77341,3.24232c1.8213,0.80057 3.79271,1.24089 5.91422,1.32094z" style="fill: rgb(255, 255, 255);"></path>
                <path d="M378.72409,212.39385c3.00214,0 5.85418,0.58041 8.55611,1.74124c2.70193,1.16083 5.09364,2.75197 7.17513,4.77341c2.08149,2.02144 3.73267,4.40315 4.95354,7.1451c1.22087,2.74196 1.83131,5.69407 1.83131,8.85633c0,3.00214 -0.58041,5.85418 -1.74124,8.55611c-1.16083,2.70193 -2.75197,5.09364 -4.77341,7.17513c-2.02144,2.08149 -4.40315,3.73267 -7.1451,4.95354c-2.74196,1.22087 -5.69407,1.83131 -8.85633,1.83131c-3.00214,0 -5.86419,-0.58041 -8.58613,-1.74124c-2.72194,-1.16083 -5.11365,-2.76197 -7.17513,-4.80343c-2.06147,-2.04146 -3.70264,-4.43317 -4.92352,-7.17513c-1.22087,-2.74196 -1.83131,-5.67405 -1.83131,-8.79628c0,-3.04217 0.58041,-5.91422 1.74124,-8.61615c1.16083,-2.70193 2.75197,-5.07362 4.77341,-7.11508c2.02144,-2.04146 4.40315,-3.66262 7.1451,-4.86347c2.74196,-1.20086 5.69407,-1.84132 8.85633,-1.92137zM378.72409,249.92066c1.9614,0 3.85275,-0.39028 5.67405,-1.17084c1.8213,-0.78056 3.42244,-1.85132 4.80343,-3.21229c1.38099,-1.36097 2.48177,-2.95211 3.30236,-4.77341c0.82059,-1.8213 1.23088,-3.77269 1.23088,-5.85418c0,-2.00143 -0.39028,-3.91279 -1.17084,-5.7341c-0.78056,-1.8213 -1.85132,-3.42244 -3.21229,-4.80343c-1.36097,-1.38099 -2.95211,-2.48177 -4.77341,-3.30236c-1.8213,-0.82059 -3.77269,-1.23088 -5.85418,-1.23088c-2.00143,0 -3.91279,0.39028 -5.7341,1.17084c-1.8213,0.78056 -3.42244,1.85132 -4.80343,3.21229c-1.38099,1.36097 -2.48177,2.96212 -3.30236,4.80343c-0.82059,1.84132 -1.23088,3.80272 -1.23088,5.8842c0,2.04146 0.39028,3.95282 1.17084,5.7341c0.78056,1.78127 1.85132,3.35239 3.21229,4.71337c1.36097,1.36097 2.95211,2.44174 4.77341,3.24232c1.8213,0.80057 3.79271,1.24089 5.91422,1.32094z" style="fill: rgb(255, 255, 255);"></path>
                <path d="M434.14367,212.4539c2.32166,0.12009 4.40315,0.66047 6.24446,1.62116c0.76054,0.40029 1.52109,0.91065 2.28163,1.53109c0.76054,0.62044 1.43102,1.39099 2.01144,2.31165c0.58041,0.92066 1.05075,2.00143 1.41101,3.24232c0.36026,1.24089 0.54039,2.68192 0.54039,4.32309c0,1.6812 -0.18013,3.14224 -0.54039,4.38313c-0.36026,1.24089 -0.83059,2.33167 -1.41101,3.27234c-0.58041,0.94067 -1.25089,1.73124 -2.01144,2.37169c-0.76054,0.64046 -1.52109,1.16083 -2.28163,1.56112c-1.84132,1.00071 -3.9228,1.56112 -6.24446,1.6812h-15.13081v18.67334h-7.50536v-26.23874h22.09578c0.04003,0 0.36026,-0.03002 0.96069,-0.09006c0.60043,-0.06004 1.23088,-0.27019 1.89135,-0.63045c0.66047,-0.36026 1.27091,-0.92066 1.83131,-1.6812c0.5604,-0.76054 0.8406,-1.86133 0.8406,-3.30236c0,-1.401 -0.29021,-2.47177 -0.87062,-3.21229c-0.58041,-0.74053 -1.21086,-1.29092 -1.89135,-1.65118c-0.80057,-0.44031 -1.72123,-0.68049 -2.76197,-0.72051h-22.09578v-7.50536h22.63617z" style="fill: rgb(255, 255, 255);"></path>
                <path d="M471.91065,230.76698c0.32023,0.04003 0.87062,0.12009 1.65118,0.24017c0.78056,0.12009 1.66119,0.35025 2.64189,0.69049c0.9807,0.34024 1.99142,0.79056 3.03217,1.35096c1.04074,0.5604 1.98142,1.33095 2.82202,2.31165c0.8406,0.9807 1.5411,2.17155 2.1015,3.57255c0.5604,1.401 0.8406,3.0822 0.8406,5.0436c0,0.08006 -0.03002,0.47034 -0.09006,1.17084c-0.06004,0.7005 -0.25018,1.55111 -0.57041,2.55182c-0.32023,1.00071 -0.80057,2.06147 -1.44103,3.18227c-0.64046,1.1208 -1.56112,2.17155 -2.76197,3.15225c-1.20086,0.9807 -2.71194,1.79128 -4.53324,2.43174c-1.8213,0.64046 -4.05289,0.96069 -6.69478,0.96069c-2.44174,0 -4.7534,-0.51036 -6.93495,-1.53109c-2.18156,-1.02073 -4.05289,-2.43174 -5.61401,-4.23302l6.12437,-4.74339c0,0.04003 0.15011,0.22016 0.45032,0.54039c0.30021,0.32023 0.74053,0.66047 1.32094,1.02073c0.58041,0.36026 1.32094,0.69049 2.22159,0.99071c0.90064,0.30021 1.97141,0.45032 3.21229,0.45032c2.28163,0 4.0629,-0.59042 5.34382,-1.77127c1.28091,-1.18084 1.92137,-2.57184 1.92137,-4.17298c0,-1.16083 -0.24017,-2.11151 -0.72051,-2.85204c-0.48034,-0.74053 -1.13081,-1.34096 -1.95139,-1.80129c-0.82059,-0.46033 -1.76126,-0.82059 -2.82202,-1.08077c-1.06076,-0.26019 -2.19157,-0.51036 -3.39242,-0.75054c-0.32023,-0.04003 -0.85061,-0.1401 -1.59114,-0.30021c-0.74053,-0.16011 -1.56112,-0.4203 -2.46176,-0.78056c-0.90064,-0.36026 -1.84132,-0.83059 -2.82202,-1.41101c-0.9807,-0.58041 -1.86133,-1.32094 -2.64189,-2.22159c-0.78056,-0.90064 -1.43102,-1.98142 -1.95139,-3.24232c-0.52037,-1.2609 -0.78056,-2.75197 -0.78056,-4.4732c0,-0.08006 0.03002,-0.45032 0.09006,-1.11079c0.06004,-0.66047 0.24017,-1.46104 0.54039,-2.40172c0.30021,-0.94067 0.78056,-1.95139 1.44103,-3.03217c0.66047,-1.08077 1.59114,-2.07148 2.79199,-2.97212c1.20086,-0.90064 2.71194,-1.65118 4.53324,-2.25161c1.8213,-0.60043 4.05289,-0.90064 6.69478,-0.90064c2.44174,0 4.7634,0.52037 6.96497,1.56112c2.20157,1.04074 4.08292,2.46176 5.64403,4.26305l-6.12437,4.74339c-0.44031,-0.76054 -1.06076,-1.35096 -1.86133,-1.77127c-0.80057,-0.4203 -1.60114,-0.73052 -2.40172,-0.93066c-0.96069,-0.20014 -1.98142,-0.32023 -3.06219,-0.36026c-2.28163,0 -4.0629,0.45032 -5.34382,1.35096c-1.28091,0.90064 -1.92137,2.17155 -1.92137,3.81272c0,1.16083 0.20014,2.07148 0.60043,2.73195c0.40029,0.66047 0.95068,1.17084 1.65118,1.53109c0.7005,0.36026 1.55111,0.63045 2.55182,0.81058c1.00071,0.18013 2.1015,0.39028 3.30236,0.63045z" style="fill: rgb(255, 255, 255);"></path>
            </g>
        </g>
    </g>
</svg>